<svg width="175" height="44" viewBox="0 0 175 44" fill="none" xmlns="http://www.w3.org/2000/svg">
<mask id="mask0_11_952" style="mask-type:alpha" maskUnits="userSpaceOnUse" x="0" y="12" width="172" height="24">
<path d="M1.548 35.2772C0.972 35.0252 0.798 34.6052 1.026 34.0172L9.954 12.9032C10.146 12.4112 10.5 12.1652 11.016 12.1652H11.124C11.616 12.1772 11.964 12.4232 12.168 12.9032L21.096 34.0172C21.336 34.6052 21.168 35.0252 20.592 35.2772C20.004 35.5172 19.596 35.3492 19.368 34.7732L16.974 29.1032H5.184L2.79 34.7732C2.55 35.3492 2.136 35.5172 1.548 35.2772ZM5.958 27.2132H16.182L11.07 15.1532L5.958 27.2132ZM26.4333 35.3672C25.7973 35.3672 25.4793 35.0492 25.4793 34.4132V13.1192C25.4793 12.4832 25.7973 12.1652 26.4333 12.1652H35.8293C37.5933 12.1652 38.9253 12.6152 39.8253 13.5152C40.7373 14.4032 41.1933 15.7112 41.1933 17.4392V18.4112C41.1933 20.2952 40.5873 21.6272 39.3753 22.4072C41.4753 23.2712 42.5253 25.1432 42.5253 28.0232V29.1572C42.5253 31.1972 41.9973 32.7452 40.9413 33.8012C39.8973 34.8452 38.3493 35.3672 36.2973 35.3672H26.4333ZM27.3693 33.4772H36.2973C37.8213 33.4772 38.9253 33.1352 39.6093 32.4512C40.2933 31.7672 40.6353 30.6692 40.6353 29.1572V28.0232C40.6353 26.5112 40.2933 25.4192 39.6093 24.7472C38.9373 24.0752 37.8333 23.7392 36.2973 23.7392H27.3693V33.4772ZM27.3693 21.8492H36.0993C37.1913 21.8492 37.9953 21.5732 38.5113 21.0212C39.0393 20.4572 39.3033 19.5872 39.3033 18.4112V17.4392C39.3033 16.2392 39.0273 15.3752 38.4753 14.8472C37.9353 14.3192 37.0533 14.0552 35.8293 14.0552H27.3693V21.8492ZM54.8235 35.3672C52.2195 35.3672 50.3175 34.7672 49.1175 33.5672C47.9175 32.3672 47.3175 30.4652 47.3175 27.8612V19.6532C47.3175 17.0252 47.9175 15.1172 49.1175 13.9292C50.3175 12.7292 52.2075 12.1412 54.7875 12.1652H59.1435C61.7475 12.1652 63.6435 12.7652 64.8315 13.9652C66.0315 15.1652 66.6315 17.0672 66.6315 19.6712V27.8612C66.6315 30.4652 66.0315 32.3672 64.8315 33.5672C63.6435 34.7672 61.7475 35.3672 59.1435 35.3672H54.8235ZM54.8235 33.4772H59.1435C60.5235 33.4772 61.6215 33.2972 62.4375 32.9372C63.2535 32.5772 63.8415 31.9892 64.2015 31.1732C64.5615 30.3572 64.7415 29.2532 64.7415 27.8612V19.6712C64.7415 18.2912 64.5615 17.1932 64.2015 16.3772C63.8415 15.5612 63.2535 14.9732 62.4375 14.6132C61.6215 14.2412 60.5235 14.0552 59.1435 14.0552H54.7875C53.4075 14.0432 52.3095 14.2172 51.4935 14.5772C50.6895 14.9252 50.1075 15.5132 49.7475 16.3412C49.3875 17.1572 49.2075 18.2612 49.2075 19.6532V27.8612C49.2075 29.2532 49.3875 30.3572 49.7475 31.1732C50.1075 31.9892 50.6955 32.5772 51.5115 32.9372C52.3275 33.2972 53.4315 33.4772 54.8235 33.4772ZM80.1959 35.3672C77.5919 35.3672 75.6899 34.7672 74.4899 33.5672C73.2899 32.3672 72.6899 30.4652 72.6899 27.8612V13.1192C72.6899 12.8312 72.7739 12.6032 72.9419 12.4352C73.1219 12.2552 73.3559 12.1652 73.6439 12.1652C73.9319 12.1652 74.1599 12.2552 74.3279 12.4352C74.4959 12.6032 74.5799 12.8312 74.5799 13.1192V27.8612C74.5799 29.2532 74.7599 30.3572 75.1199 31.1732C75.4799 31.9892 76.0679 32.5772 76.8839 32.9372C77.6999 33.2972 78.8039 33.4772 80.1959 33.4772H84.5159C85.8959 33.4772 86.9939 33.2972 87.8099 32.9372C88.6259 32.5772 89.2139 31.9892 89.5739 31.1732C89.9339 30.3572 90.1139 29.2532 90.1139 27.8612V13.1192C90.1139 12.8312 90.1979 12.6032 90.3659 12.4352C90.5459 12.2552 90.7799 12.1652 91.0679 12.1652C91.3559 12.1652 91.5839 12.2552 91.7519 12.4352C91.9199 12.6032 92.0039 12.8312 92.0039 13.1192V27.8612C92.0039 30.4652 91.4039 32.3672 90.2039 33.5672C89.0159 34.7672 87.1199 35.3672 84.5159 35.3672H80.1959ZM105.427 35.3852C105.139 35.3852 104.905 35.3012 104.725 35.1332C104.557 34.9652 104.473 34.7372 104.473 34.4492V14.0372H96.8231C96.5351 14.0372 96.3011 13.9532 96.1211 13.7852C95.9531 13.6172 95.8691 13.3892 95.8691 13.1012C95.8691 12.8132 95.9531 12.5852 96.1211 12.4172C96.3011 12.2372 96.5351 12.1472 96.8231 12.1472H114.031C114.319 12.1472 114.547 12.2372 114.715 12.4172C114.883 12.5852 114.967 12.8132 114.967 13.1012C114.967 13.3892 114.883 13.6172 114.715 13.7852C114.547 13.9532 114.319 14.0372 114.031 14.0372H106.363V34.4492C106.363 34.7252 106.273 34.9532 106.093 35.1332C105.925 35.3012 105.703 35.3852 105.427 35.3852ZM135.356 35.3672C132.752 35.3672 130.85 34.7672 129.65 33.5672C128.45 32.3672 127.85 30.4652 127.85 27.8612V13.1192C127.85 12.8312 127.934 12.6032 128.102 12.4352C128.282 12.2552 128.516 12.1652 128.804 12.1652C129.092 12.1652 129.32 12.2552 129.488 12.4352C129.656 12.6032 129.74 12.8312 129.74 13.1192V27.8612C129.74 29.2532 129.92 30.3572 130.28 31.1732C130.64 31.9892 131.228 32.5772 132.044 32.9372C132.86 33.2972 133.964 33.4772 135.356 33.4772H139.676C141.056 33.4772 142.154 33.2972 142.97 32.9372C143.786 32.5772 144.374 31.9892 144.734 31.1732C145.094 30.3572 145.274 29.2532 145.274 27.8612V13.1192C145.274 12.8312 145.358 12.6032 145.526 12.4352C145.706 12.2552 145.94 12.1652 146.228 12.1652C146.516 12.1652 146.744 12.2552 146.912 12.4352C147.08 12.6032 147.164 12.8312 147.164 13.1192V27.8612C147.164 30.4652 146.564 32.3672 145.364 33.5672C144.176 34.7672 142.28 35.3672 139.676 35.3672H135.356ZM159.687 35.3312C157.539 35.3312 155.943 34.8572 154.899 33.9092C153.867 32.9492 153.315 31.4432 153.243 29.3912C153.231 29.1032 153.309 28.8752 153.477 28.7072C153.657 28.5272 153.891 28.4372 154.179 28.4372C154.467 28.4372 154.695 28.5212 154.863 28.6892C155.031 28.8572 155.127 29.0852 155.151 29.3732C155.199 30.8852 155.559 31.9412 156.231 32.5412C156.903 33.1412 158.055 33.4412 159.687 33.4412H164.871C166.575 33.4412 167.757 33.1112 168.417 32.4512C169.089 31.7792 169.425 30.6032 169.425 28.9232C169.425 27.2192 169.089 26.0372 168.417 25.3772C167.757 24.7052 166.575 24.3692 164.871 24.3692H159.939C157.827 24.3692 156.279 23.8772 155.295 22.8932C154.311 21.9092 153.819 20.3672 153.819 18.2672C153.819 16.1672 154.305 14.6252 155.277 13.6412C156.261 12.6572 157.803 12.1652 159.903 12.1652H164.943C166.959 12.1652 168.453 12.6152 169.425 13.5152C170.409 14.4152 170.937 15.8312 171.009 17.7632C171.033 18.0512 170.955 18.2852 170.775 18.4652C170.607 18.6332 170.373 18.7172 170.073 18.7172C169.797 18.7172 169.575 18.6332 169.407 18.4652C169.239 18.2972 169.143 18.0692 169.119 17.7812C169.071 16.4012 168.735 15.4352 168.111 14.8832C167.487 14.3312 166.431 14.0552 164.943 14.0552H159.903C158.331 14.0552 157.239 14.3672 156.627 14.9912C156.015 15.6032 155.709 16.6952 155.709 18.2672C155.709 19.8392 156.015 20.9372 156.627 21.5612C157.251 22.1732 158.355 22.4792 159.939 22.4792H164.871C167.103 22.4792 168.735 23.0012 169.767 24.0452C170.799 25.0772 171.315 26.7032 171.315 28.9232C171.315 31.1432 170.799 32.7692 169.767 33.8012C168.735 34.8212 167.103 35.3312 164.871 35.3312H159.687Z" fill="white"/>
</mask>
<g mask="url(#mask0_11_952)">
<rect y="0.367188" width="175" height="43" fill="white"/>
</g>
</svg>
