<svg width="2199" height="1074" viewBox="0 0 2199 1074" fill="none" xmlns="http://www.w3.org/2000/svg">
<g opacity="0.75" filter="url(#filter0_dii_11_1928)">
<path d="M78.8756 916.945L550.967 790.449C564.311 786.873 573.488 774.648 573.195 760.836L568.623 544.933C567.887 510.147 617.029 502.208 627.284 535.455L722.46 844.024C732.438 876.371 779.991 870.008 781.111 836.175L787.081 655.95C787.893 631.429 816.194 618.198 835.53 633.299L856.463 649.647C877.401 665.999 907.692 649.075 904.743 622.673L846.654 102.616C842.629 66.5806 894.095 55.6503 905.063 90.2109L1160.12 893.924C1170.78 927.507 1220.58 918.405 1218.67 883.223L1201.45 566.107C1199.96 538.6 1233.22 523.792 1252.66 543.308L1299.15 589.975L1351.42 642.234C1367.75 658.558 1395.63 651.089 1401.61 628.787L1416.27 574.116C1419.05 563.766 1427.13 555.681 1437.48 552.908L1846.38 443.343L2050.46 388.661" stroke="url(#paint0_linear_11_1928)" stroke-width="96" stroke-linecap="round" shape-rendering="crispEdges"/>
</g>
<defs>
<filter id="filter0_dii_11_1928" x="0.86377" y="-3.86426" width="2197.61" height="1077.82" filterUnits="userSpaceOnUse" color-interpolation-filters="sRGB">
<feFlood flood-opacity="0" result="BackgroundImageFix"/>
<feColorMatrix in="SourceAlpha" type="matrix" values="0 0 0 0 0 0 0 0 0 0 0 0 0 0 0 0 0 0 127 0" result="hardAlpha"/>
<feOffset dx="35" dy="44"/>
<feGaussianBlur stdDeviation="32.5"/>
<feComposite in2="hardAlpha" operator="out"/>
<feColorMatrix type="matrix" values="0 0 0 0 0 0 0 0 0 0 0 0 0 0 0 0 0 0 0.5 0"/>
<feBlend mode="normal" in2="BackgroundImageFix" result="effect1_dropShadow_11_1928"/>
<feBlend mode="normal" in="SourceGraphic" in2="effect1_dropShadow_11_1928" result="shape"/>
<feColorMatrix in="SourceAlpha" type="matrix" values="0 0 0 0 0 0 0 0 0 0 0 0 0 0 0 0 0 0 127 0" result="hardAlpha"/>
<feOffset dx="-5" dy="26"/>
<feGaussianBlur stdDeviation="24.4"/>
<feComposite in2="hardAlpha" operator="arithmetic" k2="-1" k3="1"/>
<feColorMatrix type="matrix" values="0 0 0 0 0.701961 0 0 0 0 0.509804 0 0 0 0 0.827451 0 0 0 1 0"/>
<feBlend mode="normal" in2="shape" result="effect2_innerShadow_11_1928"/>
<feColorMatrix in="SourceAlpha" type="matrix" values="0 0 0 0 0 0 0 0 0 0 0 0 0 0 0 0 0 0 127 0" result="hardAlpha"/>
<feOffset dx="11" dy="-25"/>
<feGaussianBlur stdDeviation="28.45"/>
<feComposite in2="hardAlpha" operator="arithmetic" k2="-1" k3="1"/>
<feColorMatrix type="matrix" values="0 0 0 0 0.356863 0 0 0 0 0.415686 0 0 0 0 0.666667 0 0 0 1 0"/>
<feBlend mode="normal" in2="effect2_innerShadow_11_1928" result="effect3_innerShadow_11_1928"/>
</filter>
<linearGradient id="paint0_linear_11_1928" x1="1140.15" y1="-58.3748" x2="975.965" y2="1252.01" gradientUnits="userSpaceOnUse">
<stop/>
<stop offset="0.25" stop-opacity="0.37"/>
<stop offset="0.48" stop-opacity="0.89"/>
<stop offset="0.76" stop-opacity="0.37"/>
<stop offset="1"/>
</linearGradient>
</defs>
</svg>
