<svg width="217" height="44" viewBox="0 0 217 44" fill="none" xmlns="http://www.w3.org/2000/svg">
<mask id="mask0_11_956" style="mask-type:alpha" maskUnits="userSpaceOnUse" x="2" y="12" width="212" height="24">
<path d="M10.386 35.3672C7.782 35.3672 5.88 34.7672 4.68 33.5672C3.48 32.3672 2.88 30.4652 2.88 27.8612V19.6712C2.88 17.0432 3.474 15.1352 4.662 13.9472C5.862 12.7592 7.758 12.1652 10.35 12.1652H14.706C16.914 12.1652 18.558 12.6272 19.638 13.5512C20.718 14.4632 21.312 15.9332 21.42 17.9612C21.456 18.2852 21.39 18.5312 21.222 18.6992C21.066 18.8672 20.832 18.9512 20.52 18.9512C19.92 18.9512 19.59 18.6332 19.53 17.9972C19.446 16.5092 19.038 15.4832 18.306 14.9192C17.574 14.3432 16.374 14.0552 14.706 14.0552H10.35C8.97 14.0552 7.872 14.2352 7.056 14.5952C6.24 14.9432 5.652 15.5312 5.292 16.3592C4.944 17.1752 4.77 18.2792 4.77 19.6712V27.8612C4.77 29.2532 4.95 30.3572 5.31 31.1732C5.67 31.9892 6.258 32.5772 7.074 32.9372C7.89 33.2972 8.994 33.4772 10.386 33.4772H14.706C16.374 33.4772 17.574 33.1952 18.306 32.6312C19.038 32.0552 19.446 31.0232 19.53 29.5352C19.59 28.8992 19.92 28.5812 20.52 28.5812C20.832 28.5812 21.066 28.6712 21.222 28.8512C21.39 29.0192 21.456 29.2592 21.42 29.5712C21.312 31.5992 20.718 33.0752 19.638 33.9992C18.558 34.9112 16.914 35.3672 14.706 35.3672H10.386ZM34.3274 35.3672C31.7234 35.3672 29.8214 34.7672 28.6214 33.5672C27.4214 32.3672 26.8214 30.4652 26.8214 27.8612V19.6532C26.8214 17.0252 27.4214 15.1172 28.6214 13.9292C29.8214 12.7292 31.7114 12.1412 34.2914 12.1652H38.6474C41.2514 12.1652 43.1474 12.7652 44.3354 13.9652C45.5354 15.1652 46.1354 17.0672 46.1354 19.6712V27.8612C46.1354 30.4652 45.5354 32.3672 44.3354 33.5672C43.1474 34.7672 41.2514 35.3672 38.6474 35.3672H34.3274ZM34.3274 33.4772H38.6474C40.0274 33.4772 41.1254 33.2972 41.9414 32.9372C42.7574 32.5772 43.3454 31.9892 43.7054 31.1732C44.0654 30.3572 44.2454 29.2532 44.2454 27.8612V19.6712C44.2454 18.2912 44.0654 17.1932 43.7054 16.3772C43.3454 15.5612 42.7574 14.9732 41.9414 14.6132C41.1254 14.2412 40.0274 14.0552 38.6474 14.0552H34.2914C32.9114 14.0432 31.8134 14.2172 30.9974 14.5772C30.1934 14.9252 29.6114 15.5132 29.2514 16.3412C28.8914 17.1572 28.7114 18.2612 28.7114 19.6532V27.8612C28.7114 29.2532 28.8914 30.3572 29.2514 31.1732C29.6114 31.9892 30.1994 32.5772 31.0154 32.9372C31.8314 33.2972 32.9354 33.4772 34.3274 33.4772ZM53.3278 35.3672C52.6918 35.3672 52.3738 35.0492 52.3738 34.4132V13.1192C52.3738 12.4832 52.6918 12.1652 53.3278 12.1652C53.6638 12.1652 53.9878 12.3512 54.2998 12.7232L69.5458 32.3072H69.1138V13.1192C69.1138 12.4832 69.4318 12.1652 70.0678 12.1652C70.6918 12.1652 71.0038 12.4832 71.0038 13.1192V34.4132C71.0038 35.0492 70.6918 35.3672 70.0678 35.3672C69.7198 35.3672 69.3958 35.1812 69.0958 34.8092L53.8318 15.2252H54.2638V34.4132C54.2638 35.0492 53.9518 35.3672 53.3278 35.3672ZM84.5795 35.3852C84.2915 35.3852 84.0575 35.3012 83.8775 35.1332C83.7095 34.9652 83.6255 34.7372 83.6255 34.4492V14.0372H75.9755C75.6875 14.0372 75.4535 13.9532 75.2735 13.7852C75.1055 13.6172 75.0215 13.3892 75.0215 13.1012C75.0215 12.8132 75.1055 12.5852 75.2735 12.4172C75.4535 12.2372 75.6875 12.1472 75.9755 12.1472H93.1835C93.4715 12.1472 93.6995 12.2372 93.8675 12.4172C94.0355 12.5852 94.1195 12.8132 94.1195 13.1012C94.1195 13.3892 94.0355 13.6172 93.8675 13.7852C93.6995 13.9532 93.4715 14.0372 93.1835 14.0372H85.5155V34.4492C85.5155 34.7252 85.4255 34.9532 85.2455 35.1332C85.0775 35.3012 84.8555 35.3852 84.5795 35.3852ZM93.4464 35.2772C92.8704 35.0252 92.6964 34.6052 92.9244 34.0172L101.852 12.9032C102.044 12.4112 102.398 12.1652 102.914 12.1652H103.022C103.514 12.1772 103.862 12.4232 104.066 12.9032L112.994 34.0172C113.234 34.6052 113.066 35.0252 112.49 35.2772C111.902 35.5172 111.494 35.3492 111.266 34.7732L108.872 29.1032H97.0824L94.6884 34.7732C94.4484 35.3492 94.0344 35.5172 93.4464 35.2772ZM97.8564 27.2132H108.08L102.968 15.1532L97.8564 27.2132ZM124.046 35.3672C121.442 35.3672 119.54 34.7672 118.34 33.5672C117.14 32.3672 116.54 30.4652 116.54 27.8612V19.6712C116.54 17.0432 117.134 15.1352 118.322 13.9472C119.522 12.7592 121.418 12.1652 124.01 12.1652H128.366C130.574 12.1652 132.218 12.6272 133.298 13.5512C134.378 14.4632 134.972 15.9332 135.08 17.9612C135.116 18.2852 135.05 18.5312 134.882 18.6992C134.726 18.8672 134.492 18.9512 134.18 18.9512C133.58 18.9512 133.25 18.6332 133.19 17.9972C133.106 16.5092 132.698 15.4832 131.966 14.9192C131.234 14.3432 130.034 14.0552 128.366 14.0552H124.01C122.63 14.0552 121.532 14.2352 120.716 14.5952C119.9 14.9432 119.312 15.5312 118.952 16.3592C118.604 17.1752 118.43 18.2792 118.43 19.6712V27.8612C118.43 29.2532 118.61 30.3572 118.97 31.1732C119.33 31.9892 119.918 32.5772 120.734 32.9372C121.55 33.2972 122.654 33.4772 124.046 33.4772H128.366C130.034 33.4772 131.234 33.1952 131.966 32.6312C132.698 32.0552 133.106 31.0232 133.19 29.5352C133.25 28.8992 133.58 28.5812 134.18 28.5812C134.492 28.5812 134.726 28.6712 134.882 28.8512C135.05 29.0192 135.116 29.2592 135.08 29.5712C134.972 31.5992 134.378 33.0752 133.298 33.9992C132.218 34.9112 130.574 35.3672 128.366 35.3672H124.046ZM147.826 35.3852C147.538 35.3852 147.304 35.3012 147.124 35.1332C146.956 34.9652 146.872 34.7372 146.872 34.4492V14.0372H139.222C138.934 14.0372 138.7 13.9532 138.52 13.7852C138.352 13.6172 138.268 13.3892 138.268 13.1012C138.268 12.8132 138.352 12.5852 138.52 12.4172C138.7 12.2372 138.934 12.1472 139.222 12.1472H156.43C156.718 12.1472 156.946 12.2372 157.114 12.4172C157.282 12.5852 157.366 12.8132 157.366 13.1012C157.366 13.3892 157.282 13.6172 157.114 13.7852C156.946 13.9532 156.718 14.0372 156.43 14.0372H148.762V34.4492C148.762 34.7252 148.672 34.9532 148.492 35.1332C148.324 35.3012 148.102 35.3852 147.826 35.3852ZM177.755 35.3672C175.151 35.3672 173.249 34.7672 172.049 33.5672C170.849 32.3672 170.249 30.4652 170.249 27.8612V13.1192C170.249 12.8312 170.333 12.6032 170.501 12.4352C170.681 12.2552 170.915 12.1652 171.203 12.1652C171.491 12.1652 171.719 12.2552 171.887 12.4352C172.055 12.6032 172.139 12.8312 172.139 13.1192V27.8612C172.139 29.2532 172.319 30.3572 172.679 31.1732C173.039 31.9892 173.627 32.5772 174.443 32.9372C175.259 33.2972 176.363 33.4772 177.755 33.4772H182.075C183.455 33.4772 184.553 33.2972 185.369 32.9372C186.185 32.5772 186.773 31.9892 187.133 31.1732C187.493 30.3572 187.673 29.2532 187.673 27.8612V13.1192C187.673 12.8312 187.757 12.6032 187.925 12.4352C188.105 12.2552 188.339 12.1652 188.627 12.1652C188.915 12.1652 189.143 12.2552 189.311 12.4352C189.479 12.6032 189.562 12.8312 189.562 13.1192V27.8612C189.562 30.4652 188.963 32.3672 187.763 33.5672C186.575 34.7672 184.679 35.3672 182.075 35.3672H177.755ZM202.086 35.3312C199.938 35.3312 198.342 34.8572 197.298 33.9092C196.266 32.9492 195.714 31.4432 195.642 29.3912C195.63 29.1032 195.708 28.8752 195.876 28.7072C196.056 28.5272 196.29 28.4372 196.578 28.4372C196.866 28.4372 197.094 28.5212 197.262 28.6892C197.43 28.8572 197.526 29.0852 197.55 29.3732C197.598 30.8852 197.958 31.9412 198.63 32.5412C199.302 33.1412 200.454 33.4412 202.086 33.4412H207.27C208.974 33.4412 210.156 33.1112 210.816 32.4512C211.488 31.7792 211.824 30.6032 211.824 28.9232C211.824 27.2192 211.488 26.0372 210.816 25.3772C210.156 24.7052 208.974 24.3692 207.27 24.3692H202.338C200.226 24.3692 198.678 23.8772 197.694 22.8932C196.71 21.9092 196.218 20.3672 196.218 18.2672C196.218 16.1672 196.704 14.6252 197.676 13.6412C198.66 12.6572 200.202 12.1652 202.302 12.1652H207.342C209.358 12.1652 210.852 12.6152 211.824 13.5152C212.808 14.4152 213.336 15.8312 213.408 17.7632C213.432 18.0512 213.354 18.2852 213.174 18.4652C213.006 18.6332 212.772 18.7172 212.472 18.7172C212.196 18.7172 211.974 18.6332 211.806 18.4652C211.638 18.2972 211.542 18.0692 211.518 17.7812C211.47 16.4012 211.134 15.4352 210.51 14.8832C209.886 14.3312 208.83 14.0552 207.342 14.0552H202.302C200.73 14.0552 199.638 14.3672 199.026 14.9912C198.414 15.6032 198.108 16.6952 198.108 18.2672C198.108 19.8392 198.414 20.9372 199.026 21.5612C199.65 22.1732 200.754 22.4792 202.338 22.4792H207.27C209.502 22.4792 211.134 23.0012 212.166 24.0452C213.198 25.0772 213.714 26.7032 213.714 28.9232C213.714 31.1432 213.198 32.7692 212.166 33.8012C211.134 34.8212 209.502 35.3312 207.27 35.3312H202.086Z" fill="white"/>
</mask>
<g mask="url(#mask0_11_956)">
<rect y="0.367188" width="217" height="43" fill="white"/>
</g>
</svg>
