<svg width="2208" height="1393" viewBox="0 0 2208 1393" fill="none" xmlns="http://www.w3.org/2000/svg">
<g opacity="0.5">
<ellipse cx="1828" cy="440" rx="166" ry="167" fill="url(#paint0_linear_11_312)"/>
<ellipse cx="1966.5" cy="1147.5" rx="241.5" ry="245.5" fill="url(#paint1_linear_11_312)"/>
<path d="M279 1097.5C279 1153 234.676 1198 180 1198C125.324 1198 81 1153 81 1097.5C81 1042 125.324 997 180 997C234.676 997 279 1042 279 1097.5Z" fill="url(#paint2_linear_11_312)"/>
<ellipse cx="261.5" cy="486" rx="261.5" ry="260" fill="url(#paint3_linear_11_312)"/>
<ellipse cx="1270" cy="877" rx="127" ry="120" fill="url(#paint4_linear_11_312)"/>
<ellipse cx="914" cy="485.5" rx="95" ry="96.5" fill="url(#paint5_linear_11_312)"/>
</g>
<defs>
<linearGradient id="paint0_linear_11_312" x1="1828" y1="273" x2="1828" y2="607" gradientUnits="userSpaceOnUse">
<stop stop-color="#F197F4"/>
<stop offset="1" stop-color="#AACED1" stop-opacity="0"/>
</linearGradient>
<linearGradient id="paint1_linear_11_312" x1="1966.5" y1="902" x2="1966.5" y2="1393" gradientUnits="userSpaceOnUse">
<stop stop-color="#F197F4"/>
<stop offset="1" stop-color="#AACED1" stop-opacity="0"/>
</linearGradient>
<linearGradient id="paint2_linear_11_312" x1="180" y1="997" x2="180" y2="1198" gradientUnits="userSpaceOnUse">
<stop stop-color="#F197F4"/>
<stop offset="1" stop-color="#AACED1" stop-opacity="0"/>
</linearGradient>
<linearGradient id="paint3_linear_11_312" x1="261.5" y1="226" x2="261.5" y2="746" gradientUnits="userSpaceOnUse">
<stop stop-color="#B382D3"/>
<stop offset="1" stop-color="#AACED1" stop-opacity="0"/>
</linearGradient>
<linearGradient id="paint4_linear_11_312" x1="1270" y1="757" x2="1270" y2="997" gradientUnits="userSpaceOnUse">
<stop stop-color="#F197F4"/>
<stop offset="1" stop-color="#AACED1" stop-opacity="0"/>
</linearGradient>
<linearGradient id="paint5_linear_11_312" x1="914" y1="389" x2="914" y2="582" gradientUnits="userSpaceOnUse">
<stop stop-color="#F197F4"/>
<stop offset="1" stop-color="#AACED1" stop-opacity="0"/>
</linearGradient>
</defs>
</svg>
