<svg width="63" height="44" viewBox="0 0 63 44" fill="none" xmlns="http://www.w3.org/2000/svg">
<mask id="mask0_11_944" style="mask-type:alpha" maskUnits="userSpaceOnUse" x="3" y="12" width="57" height="26">
<path d="M4.32 35.3672C3.684 35.3672 3.366 35.0492 3.366 34.4132V13.1192C3.366 12.4832 3.684 12.1652 4.32 12.1652H17.298C17.598 12.1652 17.826 12.2492 17.982 12.4172C18.15 12.5732 18.234 12.8072 18.234 13.1192C18.234 13.7432 17.922 14.0552 17.298 14.0552H5.256V22.6772H13.464C14.1 22.6772 14.418 22.9892 14.418 23.6132C14.418 24.2492 14.1 24.5672 13.464 24.5672H5.256V34.4132C5.256 35.0492 4.944 35.3672 4.32 35.3672ZM16.9113 35.2772C16.3353 35.0252 16.1613 34.6052 16.3893 34.0172L25.3173 12.9032C25.5093 12.4112 25.8633 12.1652 26.3793 12.1652H26.4873C26.9793 12.1772 27.3273 12.4232 27.5313 12.9032L36.4593 34.0172C36.6993 34.6052 36.5313 35.0252 35.9553 35.2772C35.3673 35.5172 34.9593 35.3492 34.7313 34.7732L32.3373 29.1032H20.5473L18.1533 34.7732C17.9133 35.3492 17.4993 35.5172 16.9113 35.2772ZM21.3213 27.2132H31.5453L26.4333 15.1532L21.3213 27.2132ZM59.067 35.5112C59.259 35.7152 59.355 35.9192 59.355 36.1232C59.355 36.3392 59.247 36.5492 59.031 36.7532C58.611 37.1612 58.191 37.1612 57.771 36.7532L52.965 31.7852C52.761 31.5812 52.659 31.3772 52.659 31.1732C52.659 30.9572 52.761 30.7472 52.965 30.5432C53.385 30.1352 53.811 30.1352 54.243 30.5432L59.067 35.5112ZM47.511 35.3672C44.907 35.3672 43.005 34.7672 41.805 33.5672C40.605 32.3672 40.005 30.4652 40.005 27.8612V19.6532C40.005 17.0252 40.605 15.1172 41.805 13.9292C43.005 12.7292 44.895 12.1412 47.475 12.1652H51.831C54.435 12.1652 56.331 12.7652 57.519 13.9652C58.719 15.1652 59.319 17.0672 59.319 19.6712V27.8612C59.319 30.4652 58.719 32.3672 57.519 33.5672C56.331 34.7672 54.435 35.3672 51.831 35.3672H47.511ZM47.511 33.4772H51.831C53.211 33.4772 54.309 33.2972 55.125 32.9372C55.941 32.5772 56.529 31.9892 56.889 31.1732C57.249 30.3572 57.429 29.2532 57.429 27.8612V19.6712C57.429 18.2912 57.249 17.1932 56.889 16.3772C56.529 15.5612 55.941 14.9732 55.125 14.6132C54.309 14.2412 53.211 14.0552 51.831 14.0552H47.475C46.095 14.0432 44.997 14.2172 44.181 14.5772C43.377 14.9252 42.795 15.5132 42.435 16.3412C42.075 17.1572 41.895 18.2612 41.895 19.6532V27.8612C41.895 29.2532 42.075 30.3572 42.435 31.1732C42.795 31.9892 43.383 32.5772 44.199 32.9372C45.015 33.2972 46.119 33.4772 47.511 33.4772Z" fill="white"/>
</mask>
<g mask="url(#mask0_11_944)">
<rect y="0.367188" width="63" height="43" fill="white"/>
</g>
</svg>
