<svg width="170" height="44" viewBox="0 0 170 44" fill="none" xmlns="http://www.w3.org/2000/svg">
<mask id="mask0_11_948" style="mask-type:alpha" maskUnits="userSpaceOnUse" x="3" y="12" width="164" height="24">
<path d="M4.32 35.3672C3.684 35.3672 3.366 35.0492 3.366 34.4132V13.1192C3.366 12.4832 3.684 12.1652 4.32 12.1652H17.298C17.598 12.1652 17.826 12.2492 17.982 12.4172C18.15 12.5732 18.234 12.8072 18.234 13.1192C18.234 13.7432 17.922 14.0552 17.298 14.0552H5.256V22.6772H13.464C14.1 22.6772 14.418 22.9892 14.418 23.6132C14.418 24.2492 14.1 24.5672 13.464 24.5672H5.256V34.4132C5.256 35.0492 4.944 35.3672 4.32 35.3672ZM22.5661 35.3672C21.9301 35.3672 21.6121 35.0492 21.6121 34.4132V13.1192C21.6121 12.4832 21.9301 12.1652 22.5661 12.1652H36.0481C36.6841 12.1652 37.0021 12.4832 37.0021 13.1192C37.0021 13.7432 36.6841 14.0552 36.0481 14.0552H23.5021V22.6772H31.8001C32.4361 22.6772 32.7541 22.9892 32.7541 23.6132C32.7541 24.2492 32.4361 24.5672 31.8001 24.5672H23.5021V33.4772H36.0481C36.6841 33.4772 37.0021 33.7892 37.0021 34.4132C37.0021 35.0492 36.6841 35.3672 36.0481 35.3672H22.5661ZM39.9738 35.2772C39.3978 35.0252 39.2238 34.6052 39.4518 34.0172L48.3798 12.9032C48.5718 12.4112 48.9258 12.1652 49.4418 12.1652H49.5498C50.0418 12.1772 50.3898 12.4232 50.5938 12.9032L59.5218 34.0172C59.7618 34.6052 59.5938 35.0252 59.0178 35.2772C58.4298 35.5172 58.0218 35.3492 57.7938 34.7732L55.3998 29.1032H43.6098L41.2158 34.7732C40.9758 35.3492 40.5618 35.5172 39.9738 35.2772ZM44.3838 27.2132H54.6078L49.4958 15.1532L44.3838 27.2132ZM67.8803 35.3852C67.5923 35.3852 67.3583 35.3012 67.1783 35.1332C67.0103 34.9652 66.9263 34.7372 66.9263 34.4492V14.0372H59.2763C58.9883 14.0372 58.7543 13.9532 58.5743 13.7852C58.4063 13.6172 58.3223 13.3892 58.3223 13.1012C58.3223 12.8132 58.4063 12.5852 58.5743 12.4172C58.7543 12.2372 58.9883 12.1472 59.2763 12.1472H76.4843C76.7723 12.1472 77.0003 12.2372 77.1683 12.4172C77.3363 12.5852 77.4203 12.8132 77.4203 13.1012C77.4203 13.3892 77.3363 13.6172 77.1683 13.7852C77.0003 13.9532 76.7723 14.0372 76.4843 14.0372H68.8163V34.4492C68.8163 34.7252 68.7263 34.9532 68.5463 35.1332C68.3783 35.3012 68.1563 35.3852 67.8803 35.3852ZM88.774 35.3672C86.17 35.3672 84.268 34.7672 83.068 33.5672C81.868 32.3672 81.268 30.4652 81.268 27.8612V13.1192C81.268 12.8312 81.352 12.6032 81.52 12.4352C81.7 12.2552 81.934 12.1652 82.222 12.1652C82.51 12.1652 82.738 12.2552 82.906 12.4352C83.074 12.6032 83.158 12.8312 83.158 13.1192V27.8612C83.158 29.2532 83.338 30.3572 83.698 31.1732C84.058 31.9892 84.646 32.5772 85.462 32.9372C86.278 33.2972 87.382 33.4772 88.774 33.4772H93.094C94.474 33.4772 95.572 33.2972 96.388 32.9372C97.204 32.5772 97.792 31.9892 98.152 31.1732C98.512 30.3572 98.692 29.2532 98.692 27.8612V13.1192C98.692 12.8312 98.776 12.6032 98.944 12.4352C99.124 12.2552 99.358 12.1652 99.646 12.1652C99.934 12.1652 100.162 12.2552 100.33 12.4352C100.498 12.6032 100.582 12.8312 100.582 13.1192V27.8612C100.582 30.4652 99.982 32.3672 98.782 33.5672C97.594 34.7672 95.698 35.3672 93.094 35.3672H88.774ZM122.843 35.4032C122.579 35.5592 122.339 35.6132 122.123 35.5652C121.907 35.5172 121.715 35.3672 121.547 35.1152L115.643 25.7192H109.037V34.4132C109.037 35.0492 108.725 35.3672 108.101 35.3672C107.465 35.3672 107.147 35.0492 107.147 34.4132V13.1192C107.147 12.4832 107.465 12.1652 108.101 12.1652H116.525C118.577 12.1652 120.125 12.6932 121.169 13.7492C122.225 14.8052 122.753 16.3592 122.753 18.4112V19.4912C122.753 21.3032 122.339 22.7252 121.511 23.7572C120.683 24.7892 119.459 25.4192 117.839 25.6472L123.149 34.1072C123.485 34.6592 123.383 35.0912 122.843 35.4032ZM109.037 23.8292H116.525C118.037 23.8292 119.135 23.4872 119.819 22.8032C120.515 22.1072 120.863 21.0032 120.863 19.4912V18.4112C120.863 16.8872 120.515 15.7832 119.819 15.0992C119.135 14.4032 118.037 14.0552 116.525 14.0552H109.037V23.8292ZM129.441 35.3672C128.805 35.3672 128.487 35.0492 128.487 34.4132V13.1192C128.487 12.4832 128.805 12.1652 129.441 12.1652H142.923C143.559 12.1652 143.877 12.4832 143.877 13.1192C143.877 13.7432 143.559 14.0552 142.923 14.0552H130.377V22.6772H138.675C139.311 22.6772 139.629 22.9892 139.629 23.6132C139.629 24.2492 139.311 24.5672 138.675 24.5672H130.377V33.4772H142.923C143.559 33.4772 143.877 33.7892 143.877 34.4132C143.877 35.0492 143.559 35.3672 142.923 35.3672H129.441ZM154.625 35.3312C152.477 35.3312 150.881 34.8572 149.837 33.9092C148.805 32.9492 148.253 31.4432 148.181 29.3912C148.169 29.1032 148.247 28.8752 148.415 28.7072C148.595 28.5272 148.829 28.4372 149.117 28.4372C149.405 28.4372 149.633 28.5212 149.801 28.6892C149.969 28.8572 150.065 29.0852 150.089 29.3732C150.137 30.8852 150.497 31.9412 151.169 32.5412C151.841 33.1412 152.993 33.4412 154.625 33.4412H159.809C161.513 33.4412 162.695 33.1112 163.355 32.4512C164.027 31.7792 164.363 30.6032 164.363 28.9232C164.363 27.2192 164.027 26.0372 163.355 25.3772C162.695 24.7052 161.513 24.3692 159.809 24.3692H154.877C152.765 24.3692 151.217 23.8772 150.233 22.8932C149.249 21.9092 148.757 20.3672 148.757 18.2672C148.757 16.1672 149.243 14.6252 150.215 13.6412C151.199 12.6572 152.741 12.1652 154.841 12.1652H159.881C161.897 12.1652 163.391 12.6152 164.363 13.5152C165.347 14.4152 165.875 15.8312 165.947 17.7632C165.971 18.0512 165.893 18.2852 165.713 18.4652C165.545 18.6332 165.311 18.7172 165.011 18.7172C164.735 18.7172 164.513 18.6332 164.345 18.4652C164.177 18.2972 164.081 18.0692 164.057 17.7812C164.009 16.4012 163.673 15.4352 163.049 14.8832C162.425 14.3312 161.369 14.0552 159.881 14.0552H154.841C153.269 14.0552 152.177 14.3672 151.565 14.9912C150.953 15.6032 150.647 16.6952 150.647 18.2672C150.647 19.8392 150.953 20.9372 151.565 21.5612C152.189 22.1732 153.293 22.4792 154.877 22.4792H159.809C162.041 22.4792 163.673 23.0012 164.705 24.0452C165.737 25.0772 166.253 26.7032 166.253 28.9232C166.253 31.1432 165.737 32.7692 164.705 33.8012C163.673 34.8212 162.041 35.3312 159.809 35.3312H154.625Z" fill="white"/>
</mask>
<g mask="url(#mask0_11_948)">
<rect y="0.367188" width="170" height="43" fill="white"/>
</g>
</svg>
