<svg width="100" height="44" viewBox="0 0 100 44" fill="none" xmlns="http://www.w3.org/2000/svg">
<mask id="mask0_11_940" style="mask-type:alpha" maskUnits="userSpaceOnUse" x="3" y="12" width="95" height="24">
<path d="M4.32 35.3672C4.032 35.3672 3.798 35.2832 3.618 35.1152C3.45 34.9352 3.366 34.7012 3.366 34.4132V13.1192C3.366 12.8312 3.45 12.6032 3.618 12.4352C3.798 12.2552 4.032 12.1652 4.32 12.1652C4.608 12.1652 4.836 12.2552 5.004 12.4352C5.172 12.6032 5.256 12.8312 5.256 13.1192V22.6592H20.358V13.1192C20.358 12.8312 20.442 12.6032 20.61 12.4352C20.778 12.2552 21.006 12.1652 21.294 12.1652C21.582 12.1652 21.81 12.2552 21.978 12.4352C22.158 12.6032 22.248 12.8312 22.248 13.1192V34.4132C22.248 34.7012 22.158 34.9352 21.978 35.1152C21.81 35.2832 21.582 35.3672 21.294 35.3672C21.006 35.3672 20.778 35.2832 20.61 35.1152C20.442 34.9352 20.358 34.7012 20.358 34.4132V24.5492H5.256V34.4132C5.256 34.7012 5.172 34.9352 5.004 35.1152C4.836 35.2832 4.608 35.3672 4.32 35.3672ZM36.0149 35.3672C33.4109 35.3672 31.5089 34.7672 30.3089 33.5672C29.1089 32.3672 28.5089 30.4652 28.5089 27.8612V19.6532C28.5089 17.0252 29.1089 15.1172 30.3089 13.9292C31.5089 12.7292 33.3989 12.1412 35.9789 12.1652H40.3349C42.9389 12.1652 44.8349 12.7652 46.0229 13.9652C47.2229 15.1652 47.8229 17.0672 47.8229 19.6712V27.8612C47.8229 30.4652 47.2229 32.3672 46.0229 33.5672C44.8349 34.7672 42.9389 35.3672 40.3349 35.3672H36.0149ZM36.0149 33.4772H40.3349C41.7149 33.4772 42.8129 33.2972 43.6289 32.9372C44.4449 32.5772 45.0329 31.9892 45.3929 31.1732C45.7529 30.3572 45.9329 29.2532 45.9329 27.8612V19.6712C45.9329 18.2912 45.7529 17.1932 45.3929 16.3772C45.0329 15.5612 44.4449 14.9732 43.6289 14.6132C42.8129 14.2412 41.7149 14.0552 40.3349 14.0552H35.9789C34.5989 14.0432 33.5009 14.2172 32.6849 14.5772C31.8809 14.9252 31.2989 15.5132 30.9389 16.3412C30.5789 17.1572 30.3989 18.2612 30.3989 19.6532V27.8612C30.3989 29.2532 30.5789 30.3572 30.9389 31.1732C31.2989 31.9892 31.8869 32.5772 32.7029 32.9372C33.5189 33.2972 34.6229 33.4772 36.0149 33.4772ZM55.0153 35.3672C54.3793 35.3672 54.0613 35.0492 54.0613 34.4132V13.1192C54.0613 12.4832 54.3793 12.1652 55.0153 12.1652C55.4713 12.1652 55.8313 12.3752 56.0953 12.7952L65.0593 26.4932L64.6273 26.5472L73.5913 12.7952C73.8433 12.3752 74.2213 12.1652 74.7253 12.1652C75.2893 12.1652 75.5713 12.4832 75.5713 13.1192V34.4132C75.5713 35.0492 75.2593 35.3672 74.6353 35.3672C73.9993 35.3672 73.6813 35.0492 73.6813 34.4132V15.0092L74.2393 15.1892L65.9233 27.8612C65.6593 28.2692 65.2813 28.4732 64.7893 28.4732C64.3573 28.4732 64.0093 28.2692 63.7453 27.8612L55.4293 15.1892L55.9513 15.3872V34.4132C55.9513 35.0492 55.6393 35.3672 55.0153 35.3672ZM83.2458 35.3672C82.6098 35.3672 82.2918 35.0492 82.2918 34.4132V13.1192C82.2918 12.4832 82.6098 12.1652 83.2458 12.1652H96.7278C97.3638 12.1652 97.6818 12.4832 97.6818 13.1192C97.6818 13.7432 97.3638 14.0552 96.7278 14.0552H84.1818V22.6772H92.4798C93.1158 22.6772 93.4338 22.9892 93.4338 23.6132C93.4338 24.2492 93.1158 24.5672 92.4798 24.5672H84.1818V33.4772H96.7278C97.3638 33.4772 97.6818 33.7892 97.6818 34.4132C97.6818 35.0492 97.3638 35.3672 96.7278 35.3672H83.2458Z" fill="white"/>
</mask>
<g mask="url(#mask0_11_940)">
<rect y="0.367188" width="100" height="43" fill="white"/>
</g>
</svg>
