<svg width="70" height="69" viewBox="0 0 70 69" fill="none" xmlns="http://www.w3.org/2000/svg">
<g filter="url(#filter0_d_11_2327)">
<path d="M26.2072 10.2155C26.0174 10.3397 25.7643 10.5882 25.6377 10.7745C25.4268 11.1264 25.4268 11.3335 25.4268 18.3518V25.5772H27.1354H28.8439V19.4491V13.3417H40.0447C46.6049 13.3417 51.2033 13.3831 51.14 13.4452C51.0768 13.5073 49.3471 14.4804 47.301 15.619C45.2338 16.7577 43.1666 17.9171 42.7025 18.1862C41.2682 19.0143 41.4158 17.3581 41.4158 32.9889V46.4253H35.1088H28.8439V41.7257V37.0261H27.1354H25.4268V42.8436V48.6612L25.6799 49.0132C25.8064 49.2202 26.1018 49.4686 26.3127 49.5929C26.6924 49.8206 26.8611 49.8206 34.0541 49.862L41.3947 49.9034L41.4369 53.4436L41.4791 56.9839L41.7533 57.3565C42.1119 57.8534 42.8713 58.1639 43.3986 58.0604C43.7572 57.9983 45.0861 57.2737 55.0424 51.7253C57.0674 50.6073 58.7338 49.6757 58.7971 49.6757C59.008 49.6757 59.6197 48.9097 59.7041 48.537C59.8518 47.8952 59.8307 11.7889 59.683 11.2507C59.6197 11.0229 59.451 10.6917 59.3244 10.5675C58.7549 9.96707 59.7463 10.0085 42.5338 10.0085C26.8189 9.98778 26.5869 9.98778 26.2072 10.2155Z" fill="url(#paint0_linear_11_2327)"/>
<path d="M19.7734 23.7968C17.4109 25.3909 10.1969 30.6288 10.1125 30.8358C9.92265 31.2499 9.96483 31.6019 10.3023 31.9331C10.4711 32.0987 12.7703 33.7964 15.4492 35.6804C19.8156 38.7858 20.3219 39.1378 20.7226 39.1378C21.0601 39.1378 21.2289 39.055 21.4187 38.8272C21.693 38.5167 21.693 38.496 21.693 36.0944V33.6722L26.7344 33.6308L31.7758 33.5894L32.3031 33.2788C33.0203 32.8647 33.4 32.2644 33.4633 31.4776C33.5266 30.7116 33.3578 30.1733 32.8937 29.6765C32.1766 28.8897 32.2609 28.8897 26.6922 28.8897H21.6719V26.4468C21.6508 23.8796 21.6508 23.7761 21.1445 23.5276C20.7437 23.2999 20.4062 23.3827 19.7734 23.7968Z" fill="url(#paint1_linear_11_2327)"/>
</g>
<defs>
<filter id="filter0_d_11_2327" x="0" y="0" width="69.8047" height="68.0803" filterUnits="userSpaceOnUse" color-interpolation-filters="sRGB">
<feFlood flood-opacity="0" result="BackgroundImageFix"/>
<feColorMatrix in="SourceAlpha" type="matrix" values="0 0 0 0 0 0 0 0 0 0 0 0 0 0 0 0 0 0 127 0" result="hardAlpha"/>
<feOffset/>
<feGaussianBlur stdDeviation="5"/>
<feComposite in2="hardAlpha" operator="out"/>
<feColorMatrix type="matrix" values="0 0 0 0 0 0 0 0 0 0 0 0 0 0 0 0 0 0 0.65 0"/>
<feBlend mode="normal" in2="BackgroundImageFix" result="effect1_dropShadow_11_2327"/>
<feBlend mode="normal" in="SourceGraphic" in2="effect1_dropShadow_11_2327" result="shape"/>
</filter>
<linearGradient id="paint0_linear_11_2327" x1="42.6158" y1="10" x2="42.6158" y2="58.0803" gradientUnits="userSpaceOnUse">
<stop stop-color="#F197F4"/>
<stop offset="1" stop-color="#2B3A63"/>
</linearGradient>
<linearGradient id="paint1_linear_11_2327" x1="21.738" y1="23.4034" x2="21.738" y2="39.1378" gradientUnits="userSpaceOnUse">
<stop stop-color="#F197F4"/>
<stop offset="1" stop-color="#2B3A63"/>
</linearGradient>
</defs>
</svg>
