<svg width="52" height="52" viewBox="0 0 52 52" fill="none" xmlns="http://www.w3.org/2000/svg">
<path d="M30.3955 36.3762L30.3955 36.3762C31.4573 35.7328 32.7529 35.8252 33.6247 36.5639C36.0934 38.6558 37.587 41.6547 37.7787 44.8631C34.3608 47.0052 30.323 48.2449 26 48.2449C21.6768 48.2448 17.639 47.0051 14.2212 44.8628C14.4126 41.657 15.898 38.6668 18.3649 36.5719C19.2426 35.8266 20.5423 35.7322 21.604 36.3756C23.007 37.2258 24.4876 37.6656 26.0004 37.6656C27.5129 37.6656 28.9931 37.226 30.3955 36.3762ZM40.7637 42.6248C40.1045 39.3173 38.3467 36.2986 35.729 34.0805L35.729 34.0804C33.7709 32.4214 30.9482 32.2352 28.7086 33.5924C26.9174 34.6777 25.0827 34.6776 23.291 33.5919C21.0481 32.2326 18.2206 32.4242 16.2578 34.0909L16.5673 34.4553L16.2578 34.0909C13.6431 36.3113 11.8916 39.3216 11.2342 42.6231C6.64754 38.5444 3.75507 32.6036 3.75507 26.0001C3.75507 13.7345 13.7346 3.75507 26 3.75507C38.2655 3.75507 48.2449 13.7345 48.2449 26C48.2449 32.6044 45.3516 38.5461 40.7637 42.6248ZM26 0.5C11.9389 0.5 0.5 11.9388 0.5 26C0.5 40.0611 11.9388 51.5 26 51.5C40.0612 51.5 51.5 40.0612 51.5 26C51.5 11.9388 40.0611 0.5 26 0.5Z" fill="url(#paint0_linear_11_2476)" stroke="url(#paint1_linear_11_2476)"/>
<defs>
<linearGradient id="paint0_linear_11_2476" x1="26" y1="1" x2="26" y2="51" gradientUnits="userSpaceOnUse">
<stop stop-color="#F197F4"/>
<stop offset="1" stop-color="#2B3A63"/>
</linearGradient>
<linearGradient id="paint1_linear_11_2476" x1="26" y1="1" x2="26" y2="51" gradientUnits="userSpaceOnUse">
<stop stop-color="#F197F4"/>
<stop offset="1" stop-color="#2B3A63"/>
</linearGradient>
</defs>
</svg>
