<svg width="24" height="27" viewBox="0 0 24 27" fill="none" xmlns="http://www.w3.org/2000/svg">
<path d="M6.63056 19.0232L6.63054 19.0232C5.11174 16.9523 4.17792 14.2726 4.17792 12.0605C4.17792 7.74792 7.68725 4.23859 11.9999 4.23859C16.3125 4.23859 19.8218 7.74792 19.8218 12.0605C19.8219 14.3203 18.8864 16.9218 17.4077 18.9577C15.921 21.0047 13.9714 22.3692 11.9999 22.3692C10.2017 22.3692 8.23031 21.2048 6.63056 19.0232ZM11.9999 0.983521C5.89153 0.983521 0.922852 5.95219 0.922852 12.0605C0.922852 15.0098 2.08073 18.3235 4.00567 20.9482C6.18493 23.9197 9.01606 25.6243 11.9999 25.6243C14.9838 25.6243 17.8148 23.9199 19.9942 20.9482C21.9192 18.3235 23.0771 15.0098 23.0771 12.0605C23.0771 5.95219 18.1082 0.983521 11.9999 0.983521Z" fill="url(#paint0_linear_11_2475)" stroke="url(#paint1_linear_11_2475)"/>
<defs>
<linearGradient id="paint0_linear_11_2475" x1="12" y1="1.48352" x2="12" y2="25.1243" gradientUnits="userSpaceOnUse">
<stop stop-color="#F197F4"/>
<stop offset="1" stop-color="#2B3A63"/>
</linearGradient>
<linearGradient id="paint1_linear_11_2475" x1="12" y1="1.48352" x2="12" y2="25.1243" gradientUnits="userSpaceOnUse">
<stop stop-color="#F197F4"/>
<stop offset="1" stop-color="#2B3A63"/>
</linearGradient>
</defs>
</svg>
