<svg width="35" height="49" viewBox="0 0 35 49" fill="none" xmlns="http://www.w3.org/2000/svg">
<path d="M1.20723 0.215512C1.01738 0.339731 0.764258 0.588169 0.637695 0.774497C0.426758 1.12645 0.426758 1.33348 0.426758 8.35184V15.5772H2.13535H3.84395V9.44911V3.34168H15.0447C21.6049 3.34168 26.2033 3.38309 26.14 3.4452C26.0768 3.50731 24.3471 4.48036 22.301 5.61903C20.2338 6.7577 18.1666 7.91707 17.7025 8.18622C16.2682 9.01434 16.4158 7.35809 16.4158 22.9889V36.4253H10.1088H3.84395V31.7257V27.0261H2.13535H0.426758V32.8436V38.6612L0.679884 39.0132C0.806446 39.2202 1.10176 39.4686 1.3127 39.5929C1.69238 39.8206 1.86113 39.8206 9.0541 39.862L16.3947 39.9034L16.4369 43.4436L16.4791 46.9839L16.7533 47.3565C17.1119 47.8534 17.8713 48.1639 18.3986 48.0604C18.7572 47.9983 20.0861 47.2737 30.0424 41.7253C32.0674 40.6073 33.7338 39.6757 33.7971 39.6757C34.008 39.6757 34.6197 38.9097 34.7041 38.537C34.8518 37.8952 34.8307 1.78895 34.683 1.25067C34.6197 1.02293 34.451 0.691684 34.3244 0.567465C33.7549 -0.0329251 34.7463 0.00848119 17.5338 0.00848119C1.81894 -0.0122219 1.58691 -0.0122219 1.20723 0.215512Z" fill="url(#paint0_linear_11_2447)"/>
<defs>
<linearGradient id="paint0_linear_11_2447" x1="17.6158" y1="0" x2="17.6158" y2="48.0803" gradientUnits="userSpaceOnUse">
<stop stop-color="#F197F4"/>
<stop offset="1" stop-color="#2B3A63"/>
</linearGradient>
</defs>
</svg>
