<svg width="24" height="17" viewBox="0 0 24 17" fill="none" xmlns="http://www.w3.org/2000/svg">
<path d="M9.77343 0.796773C7.41093 2.39091 0.196864 7.6288 0.112489 7.83584C-0.0773545 8.2499 -0.0351671 8.60185 0.302333 8.9331C0.471083 9.09873 2.7703 10.7964 5.44921 12.6804C9.81561 15.7858 10.3219 16.1378 10.7226 16.1378C11.0601 16.1378 11.2289 16.055 11.4187 15.8272C11.693 15.5167 11.693 15.496 11.693 13.0944V10.6722L16.7344 10.6308L21.7758 10.5894L22.3031 10.2788C23.0203 9.86474 23.4 9.26435 23.4633 8.47763C23.5266 7.71162 23.3578 7.17334 22.8937 6.67646C22.1766 5.88974 22.2609 5.88974 16.6922 5.88974H11.6719V3.44677C11.6508 0.879586 11.6508 0.776071 11.1445 0.527633C10.7437 0.299899 10.4062 0.38271 9.77343 0.796773Z" fill="url(#paint0_linear_11_2448)"/>
<defs>
<linearGradient id="paint0_linear_11_2448" x1="11.738" y1="0.403381" x2="11.738" y2="16.1378" gradientUnits="userSpaceOnUse">
<stop stop-color="#F197F4"/>
<stop offset="1" stop-color="#2B3A63"/>
</linearGradient>
</defs>
</svg>
